HIERARCHY
ROOT root
{
	OFFSET	0	13.1	24.9
	CHANNELS 6  Xposition Yposition Zposition Xrotation Yrotation Zrotation
	JOINT spine_1
	{
		OFFSET	0	9.99999	0
		CHANNELS 3  Xrotation Yrotation Zrotation
		JOINT spine_2
		{
			OFFSET	0	112	-10
			CHANNELS 3  Xrotation Yrotation Zrotation
			JOINT spine_3
			{
				OFFSET	0	206.5	19.3
				CHANNELS 3  Xrotation Yrotation Zrotation
				JOINT spine_4
				{
					OFFSET	0	110.4	14.6
					CHANNELS 3  Xrotation Yrotation Zrotation
					JOINT neck_1
					{
						OFFSET	0	71.8	-50.3
						CHANNELS 3  Xrotation Yrotation Zrotation
						JOINT neck_2
						{
							OFFSET	0	86.2	-25.8
							CHANNELS 3  Xrotation Yrotation Zrotation
							JOINT head_ee
							{
								OFFSET	0	179.8	-8.7
								CHANNELS 3  Xrotation Yrotation Zrotation
								End Site
								{
									OFFSET	1	0	0
								}
							}
						}
					}
					JOINT left_clavicle
					{
						OFFSET	-43.2	22.4	-70.8
						CHANNELS 3  Xrotation Yrotation Zrotation
						JOINT left_shoulder
						{
							OFFSET	-93.9	-5.79999	48.7
							CHANNELS 3  Xrotation Yrotation Zrotation
							JOINT left_elbow
							{
								OFFSET	-291.4	-30.8	15.2
								CHANNELS 3  Xrotation Yrotation Zrotation
								JOINT left_lowarm_twist
								{
									OFFSET	-110.7	-3.89999	13.6
									CHANNELS 3  Xrotation Yrotation Zrotation
									JOINT left_hand
									{
										OFFSET	-110.7	-3.89999	13.6
										CHANNELS 3  Xrotation Yrotation Zrotation
										JOINT left_ee
										{
											OFFSET	-80.8	-5.10001	12.1
											CHANNELS 3  Xrotation Yrotation Zrotation
											End Site
											{
												OFFSET	1	0	0
											}
										}
									}
								}
							}
						}
					}
					JOINT right_clavicle
					{
						OFFSET	43.2	22.4	-70.8
						CHANNELS 3  Xrotation Yrotation Zrotation
						JOINT right_shoulder
						{
							OFFSET	93.9	-5.79999	48.7
							CHANNELS 3  Xrotation Yrotation Zrotation
							JOINT right_elbow
							{
								OFFSET	291.4	-30.8	15.2
								CHANNELS 3  Xrotation Yrotation Zrotation
								JOINT right_lowarm_twist
								{
									OFFSET	110.7	-3.89999	13.6
									CHANNELS 3  Xrotation Yrotation Zrotation
									JOINT right_hand
									{
										OFFSET	110.7	-3.89999	13.6
										CHANNELS 3  Xrotation Yrotation Zrotation
										JOINT right_ee
										{
											OFFSET	80.8	-5.10001	12.1
											CHANNELS 3  Xrotation Yrotation Zrotation
											End Site
											{
												OFFSET	1	0	0
											}
										}
									}
								}
							}
						}
					}
				}
			}
		}
	}
	JOINT left_hip
	{
		OFFSET	-82.8	-127.5	0.300001
		CHANNELS 3  Xrotation Yrotation Zrotation
		JOINT left_knee
		{
			OFFSET	-28.2	-396.7	2.2
			CHANNELS 3  Xrotation Yrotation Zrotation
			JOINT left_ankle
			{
				OFFSET	-11.7	-411.3	35.4
				CHANNELS 3  Xrotation Yrotation Zrotation
				JOINT left_toes
				{
					OFFSET	0	-60	-88.6
					CHANNELS 3  Xrotation Yrotation Zrotation
					JOINT left_foot_ee
					{
						OFFSET	-22.5	-16.5	-42.2
						CHANNELS 3  Xrotation Yrotation Zrotation
						End Site
						{
							OFFSET	1	0	0
						}
					}
				}
			}
		}
	}
	JOINT right_hip
	{
		OFFSET	82.8	-127.5	0.300001
		CHANNELS 3  Xrotation Yrotation Zrotation
		JOINT right_knee
		{
			OFFSET	28.2	-396.7	2.2
			CHANNELS 3  Xrotation Yrotation Zrotation
			JOINT right_ankle
			{
				OFFSET	11.7	-411.3	35.4
				CHANNELS 3  Xrotation Yrotation Zrotation
				JOINT right_toes
				{
					OFFSET	0	-60	-88.6
					CHANNELS 3  Xrotation Yrotation Zrotation
					JOINT right_foot_ee
					{
						OFFSET	22.5	-16.5	-42.2
						CHANNELS 3  Xrotation Yrotation Zrotation
						End Site
						{
							OFFSET	1	0	0
						}
					}
				}
			}
		}
	}
}
MOTION
Frames: 16
Frame Time: 0.02
2194.36 694.457 -668.092 -173.574 -55.202 -177.595 -0.092769 -0.0438515 0.384251 -0.0926893 -0.0682134 0.380682 -0.0931187 -0.147284 0.357603 -0.0932865 -0.0889592 0.376375 0.503748 8.60751 2.53126 0.632188 13.2104 3.58332 -0.0 0.0 -0.0 1.99166 13.83 4.87991 8.59299 -28.7869 61.9109 2.74815 -53.6906 1.39111 -20.9098 -1.18539 2.38163 0.252162 0.164667 1.75282 -0.0 0.0 -0.0 8.40705 2.99221 -16.4523 -26.1385 22.9596 -58.79 0.557265 15.4325 -0.0755067 -16.974 0.896781 -1.96855 3.62733 -23.61 -32.1596 0.0 0.0 0.0 -6.12812 -4.58829 7.45155 -20.9767 0.282751 3.18867 37.393 1.28703 -4.63608 -18.0938 0.0 0.0 -0.0 0.0 -0.0 36.7513 19.908 -0.964842 -2.86774 -0.107407 -0.426953 -15.564 1.57847 -2.37237 -0.29214 0.0 0.0 0.0 0.0 0.0 
2218.2 688.407 -652.425 -173.067 -56.5048 -177.459 -0.0708024 -0.0864792 0.29949 -0.0707588 -0.105361 0.29338 -0.071295 -0.165 0.264477 -0.0713718 -0.12116 0.287216 1.98348 9.14159 2.11098 2.15771 14.2965 3.0559 -0.0 0.0 -0.0 2.04621 13.0452 4.91795 7.60811 -28.0802 62.4878 2.64071 -52.5949 1.30515 -20.7931 -1.17642 2.36967 0.650431 -1.28618 3.81697 -0.0 0.0 -0.0 8.50825 3.88631 -16.6675 -26.1655 22.4897 -59.5392 0.508562 14.1403 -0.0630762 -17.4731 0.93179 -2.022 3.64505 -24.9328 -32.5122 0.0 0.0 0.0 -7.35422 -3.43724 6.89616 -21.9341 0.267646 3.33481 36.2709 -2.13186 -4.55944 -16.8949 0.0 0.0 -0.0 0.0 -0.0 37.8624 20.1091 -0.683624 -7.99297 -0.245639 -1.20109 -16.6022 0.952585 -2.52763 2.61545 -0.0 -0.0 0.0 0.0 0.0 
2246.39 685.02 -636.085 -173.372 -56.0382 -177.761 -0.203105 0.0387028 0.212123 -0.20308 0.0251265 0.214156 -0.202971 -0.0212056 0.21458 -0.203035 0.0129493 0.215236 1.94754 9.66282 0.907869 2.17992 16.2318 1.76849 -0.0 0.0 -0.0 1.69523 12.7895 4.31865 5.28847 -28.5299 62.3732 2.64272 -52.6159 1.30675 -20.4705 -1.15177 2.33652 0.965359 -4.73665 4.50228 -0.0 0.0 -0.0 8.73321 3.86844 -17.1354 -25.6642 21.5487 -58.8522 0.512933 14.2569 -0.0641482 -15.3708 0.787496 -1.79482 3.72829 -23.1901 -32.7985 0.0 0.0 0.0 -7.61222 -6.51218 7.11928 -25.392 0.192809 3.86007 37.2857 -11.5932 -4.8214 -16.8468 0.0 0.0 -0.0 0.0 -0.0 37.7464 19.8378 -0.953194 -10.5616 -0.288732 -1.59286 -11.785 7.39526 -1.83286 5.90015 -0.0 -0.0 0.0 0.0 0.0 
2280.79 691.294 -618.204 -174.022 -57.1715 -178.068 -0.298603 0.117879 0.0468139 -0.298609 0.114662 0.05422 -0.298501 0.100302 0.0776316 -0.298492 0.111303 0.0608165 4.37788 9.43885 -1.13248 4.74689 17.2629 -0.807344 -0.0 0.0 -0.0 1.9707 14.6645 4.90057 4.64394 -24.9173 65.6983 2.49831 -51.0529 1.19319 -22.369 -1.29953 2.52966 0.51848 1.69582 4.16252 -0.0 0.0 -0.0 8.84191 3.06899 -17.3527 -25.9358 21.1387 -58.327 0.427741 11.9637 -0.0448206 -16.1152 0.837633 -1.87587 3.71908 -24.322 -32.9306 0.0 0.0 0.0 -8.74773 -6.16846 6.41003 -25.8769 0.179782 3.93336 34.5069 -8.38907 -4.48287 -17.4088 0.0 0.0 -0.0 0.0 -0.0 37.1802 19.4883 -0.935236 -17.2649 -0.318171 -2.62034 -10.213 -2.68226 -1.53145 9.64529 -0.0 -0.0 0.0 0.0 0.0 
2307.98 701.17 -599.636 -175.222 -55.4697 -178.596 -0.505399 0.219219 -0.0277428 -0.505425 0.22054 -0.013737 -0.505496 0.218202 0.0348485 -0.505429 0.220967 -4.99572e-05 3.40352 9.51516 -0.305735 3.7088 16.8072 0.248116 -0.0 0.0 -0.0 2.82873 17.473 6.40211 0.923377 -24.3095 63.8305 2.32537 -49.0312 1.06061 -23.2903 -1.37354 2.62162 1.02335 -4.2954 5.079 -0.0 0.0 -0.0 9.4586 4.15724 -18.6586 -25.2451 22.0167 -56.8511 0.455635 12.7192 -0.0507827 -15.0912 0.768938 -1.76422 3.46503 -27.2356 -31.6369 0.0 0.0 0.0 -5.46208 -4.12598 5.21632 -33.7488 -0.11768 5.10385 34.7024 -10.2189 -4.54031 -18.0004 0.0 0.0 -0.0 0.0 -0.0 35.1428 18.0435 -1.90235 -17.5848 -0.316569 -2.66941 -8.26857 0.934618 -1.24712 11.8496 -0.0 -0.0 0.0 0.0 0.0 
2338.95 708.624 -589.035 -176.025 -54.3653 -179.44 -0.631595 0.11049 -0.0728036 -0.6316 0.114899 -0.0656253 -0.631738 0.126559 -0.0386172 -0.631721 0.118872 -0.0581202 3.79135 9.0147 -3.64877 4.2891 18.7497 -3.62687 -0.0 0.0 -0.0 2.52898 20.5783 6.07347 -0.933026 -24.665 66.0568 2.18554 -47.2665 0.956444 -22.4984 -1.30984 2.54264 0.69748 -3.10795 3.37597 -0.0 0.0 -0.0 9.1814 5.56417 -18.0874 -20.4159 22.9713 -57.4929 0.37216 10.4458 -0.0340193 -19.8809 1.1072 -2.27555 2.99713 -30.085 -29.0085 0.0 0.0 0.0 -2.45979 -3.53957 6.35396 -38.0188 -0.345561 5.71892 39.5342 -8.40764 -4.95155 -17.6696 0.0 0.0 -0.0 0.0 -0.0 33.5564 18.2114 -2.1213 -19.8021 -0.297941 -3.00908 -5.05917 -3.42002 -0.751375 13.7215 -0.0 -0.0 0.0 0.0 0.0 
2360.92 707.707 -574.949 -176.871 -53.1175 -179.919 -0.523976 0.130442 0.110669 -0.523978 0.123135 0.118745 -0.523714 0.0941259 0.142839 -0.523724 0.115503 0.126181 4.00206 6.88469 -2.79217 4.29219 14.3118 -2.77236 -0.0 0.0 -0.0 2.04118 20.4234 5.35375 -2.10266 -25.351 66.1947 1.80046 -41.7256 0.686237 -22.7913 -1.33327 2.57196 0.0496815 3.97681 1.99402 -0.0 0.0 -0.0 9.92412 6.88435 -19.6805 -22.5277 22.2925 -55.9594 0.587308 16.2217 -0.0837007 -19.7313 1.09599 -2.26001 3.21957 -30.3729 -30.4581 0.0 0.0 0.0 -0.96489 -4.84337 6.99582 -43.1731 -0.680881 6.43668 39.8059 -5.00255 -4.91488 -18.0545 0.0 0.0 -0.0 0.0 -0.0 32.7717 18.739 -3.54193 -21.8191 -0.26959 -3.31726 0.607485 -8.84607 0.0887734 15.1008 -0.0 -0.0 0.0 0.0 0.0 
2379.23 714.296 -570.184 -177.107 -52.4367 179.731 -0.639041 -0.0293018 0.234355 -0.639011 -0.044155 0.232016 -0.639179 -0.0943547 0.216513 -0.639239 -0.0589763 0.228698 3.10813 6.5726 -4.37081 3.46157 15.1681 -4.46889 -0.0 0.0 -0.0 1.9812 22.2642 5.36656 -3.06644 -25.3724 67.459 1.67218 -39.6334 0.60261 -21.9638 -1.26746 2.48885 0.0942448 0.858817 0.989455 -0.0 0.0 -0.0 10.2223 9.44458 -20.3258 -20.7072 22.733 -55.4208 0.60723 16.7416 -0.0893526 -17.3778 0.925072 -2.01182 3.48065 -30.5638 -32.1661 0.0 0.0 0.0 4.39462 -0.522487 5.35291 -50.5364 -1.26921 7.40441 38.7594 -7.66086 -4.86841 -18.3803 0.0 0.0 -0.0 0.0 -0.0 31.1724 17.6563 -2.1895 -20.7308 -0.286235 -3.15111 -1.35948 -4.44752 -0.200066 14.3168 -0.0 -0.0 0.0 0.0 0.0 
2394.2 716.386 -564.693 -177.634 -51.996 179.388 -0.770163 -0.0784216 0.337231 -0.770105 -0.0997214 0.331557 -0.770666 -0.171244 0.300916 -0.770772 -0.121572 0.324184 2.69963 5.87401 -4.90726 3.03713 14.4193 -5.05981 -0.0 0.0 -0.0 2.13511 23.0258 5.62001 -3.8719 -25.2391 67.8334 1.51681 -36.9181 0.506337 -21.6757 -1.24483 2.45969 -0.146147 2.54562 0.100499 -0.0 0.0 -0.0 10.3698 11.6555 -20.6198 -19.1416 23.3394 -55.3348 0.589361 16.2754 -0.0842752 -17.5303 0.935832 -2.02811 3.57857 -30.4905 -32.8007 0.0 0.0 0.0 8.33785 0.454055 3.78542 -56.4722 -1.83134 8.12545 39.2971 -7.25055 -4.90824 -17.5892 0.0 0.0 -0.0 0.0 -0.0 29.5699 17.5214 -1.58679 -20.2171 -0.292995 -3.07257 -0.419188 -4.72578 -0.0615341 14.1286 -0.0 -0.0 0.0 0.0 0.0 
2413.52 719.884 -553.529 -179.05 -51.7318 177.94 -0.917409 -0.095658 0.625448 -0.917201 -0.135262 0.618094 -0.918576 -0.271359 0.571579 -0.918988 -0.177685 0.60726 1.8636 4.58783 -4.82902 2.10993 12.1154 -4.95423 -0.0 0.0 -0.0 1.86303 22.8809 5.23464 -4.37644 -25.146 68.3548 1.30133 -32.806 0.383093 -20.4076 -1.14699 2.33003 -0.251047 5.69193 0.733959 -0.0 0.0 -0.0 10.8499 15.5429 -21.5697 -17.4837 22.3351 -55.9688 0.618509 17.0347 -0.0926292 -16.8427 0.887645 -1.95443 3.65776 -30.6016 -33.3354 0.0 0.0 0.0 11.5792 2.0584 1.18522 -61.1606 -2.32661 8.65205 39.5996 -7.46508 -4.9387 -17.0217 0.0 0.0 -0.0 0.0 -0.0 27.966 17.5813 -1.14455 -23.088 -0.246201 -3.51057 5.2435 -3.84284 0.758893 15.053 -0.0 -0.0 0.0 0.0 0.0 
2425.01 720.905 -544.048 -178.806 -51.6607 177.799 -0.656999 0.0480461 0.961185 -0.656485 -0.0132111 0.962295 -0.656401 -0.22592 0.935495 -0.657615 -0.0753481 0.959432 1.17792 3.46099 -4.25275 1.33736 9.65119 -4.33525 -0.0 0.0 -0.0 1.85546 21.155 5.12564 -4.40542 -25.4258 69.0116 0.983711 -25.9795 0.226928 -19.1826 -1.05523 2.20278 -0.362071 8.83601 1.33309 -0.0 0.0 -0.0 11.2085 19.4989 -22.1622 -12.5641 22.1907 -55.045 0.71856 19.5934 -0.124076 -15.7417 0.812343 -1.83528 3.75132 -30.6805 -33.966 0.0 0.0 0.0 14.132 3.82607 -0.152199 -64.3452 -2.687 8.98612 38.5722 -7.22287 -4.84349 -16.9689 0.0 0.0 -0.0 0.0 -0.0 26.6289 17.1914 -0.717536 -22.8779 -0.250369 -3.4786 11.0871 -2.22546 1.5774 16.1594 -0.0 -0.0 0.0 0.0 0.0 
2436.32 725.65 -532.398 -178.877 -51.1725 177.622 -0.679283 0.22868 1.19971 -0.678495 0.151882 1.21183 -0.674684 -0.120533 1.21534 -0.676737 0.0729059 1.21913 -0.16518 2.95413 -3.1377 -0.0785599 7.8289 -3.05524 -0.0 0.0 -0.0 1.53641 20.0538 4.59147 -4.67305 -25.6113 69.5368 0.781722 -21.1684 0.146075 -18.316 -0.991975 2.11159 -0.254485 11.269 3.034 -0.0 0.0 -0.0 11.3371 22.1943 -22.2475 -9.71438 23.4769 -54.5551 0.889924 23.7896 -0.187456 -15.1058 0.769906 -1.76583 3.97449 -30.876 -35.4909 0.0 0.0 0.0 18.2415 2.72649 -1.45567 -66.9443 -2.99462 9.24373 36.6801 -6.6296 -4.65975 -17.2494 0.0 0.0 -0.0 0.0 -0.0 25.4131 16.3949 -0.810715 -22.5417 -0.256796 -3.4274 11.6641 -1.27105 1.65883 15.9477 -0.0 -0.0 0.0 0.0 0.0 
2445.72 729.286 -520.153 -179.808 -51.4753 177.268 -0.960908 0.276296 1.33522 -0.959936 0.190781 1.35009 -0.954604 -0.119887 1.35822 -0.957166 0.0961032 1.36011 -1.91548 1.51889 -3.45119 -1.8563 5.48091 -3.43796 -0.0 0.0 -0.0 1.62266 18.2363 4.59487 -5.66466 -26.1352 69.1607 0.672125 -18.4153 0.108954 -16.8096 -0.885349 1.95087 -0.0989321 13.9217 5.0941 -0.0 0.0 -0.0 11.721 24.2689 -22.9289 -7.31496 22.7843 -53.7443 1.01861 26.7745 -0.242435 -13.7693 0.683247 -1.61835 3.96863 -30.8371 -35.4481 0.0 0.0 0.0 22.8133 0.57497 -4.01386 -68.9991 -3.24594 9.43744 35.0385 -3.29553 -4.45498 -16.5648 0.0 0.0 -0.0 0.0 -0.0 24.1459 14.8268 -0.857193 -23.1391 -0.245169 -3.51834 16.2152 2.77248 2.28707 18.4119 -0.0 -0.0 0.0 0.0 0.0 
2458.17 732.294 -508.434 178.671 -50.6391 176.632 -1.25768 0.261623 1.55828 -1.25635 0.161948 1.57176 -1.25071 -0.20629 1.56656 -1.25413 0.0436757 1.57948 -2.19384 1.05615 -2.67369 -2.1603 4.02243 -2.66529 -0.0 0.0 -0.0 1.45111 19.1492 4.40112 -5.50811 -25.2984 69.7901 0.556957 -15.4244 0.0754247 -15.708 -0.810078 1.83162 -0.105129 17.5709 6.50007 -0.0 0.0 -0.0 11.968 24.3458 -23.4854 -5.46527 22.213 -54.0933 1.23464 31.4488 -0.34762 -13.2773 0.652219 -1.56356 4.05187 -30.7709 -36.0158 0.0 0.0 0.0 25.9826 -4.69882 -3.27335 -70.9032 -3.48492 9.60885 32.832 0.458115 -4.20144 -16.4494 0.0 0.0 -0.0 0.0 -0.0 22.7323 13.8838 -1.99022 -23.6532 -0.234406 -3.59649 12.7951 -0.28357 1.81557 18.3407 -0.0 -0.0 0.0 0.0 0.0 
2474.1 731.323 -500.263 177.922 -50.2379 175.312 -1.43125 0.185586 1.79822 -1.42945 0.0708042 1.80638 -1.42569 -0.35475 1.77263 -1.43007 -0.0703928 1.80639 -2.52004 0.226308 -2.49408 -2.49719 2.37063 -2.5771 -0.0 0.0 -0.0 1.44239 17.6602 4.27827 -7.94569 -26.3717 69.3791 0.514494 -14.2985 0.0645333 -14.566 -0.734493 1.70651 0.441838 17.953 9.99826 -0.0 0.0 -0.0 12.2591 26.5057 -23.9147 -4.9774 23.0377 -52.7659 1.27251 32.2243 -0.367597 -13.3595 0.657373 -1.57274 3.97193 -30.2723 -35.4299 0.0 0.0 0.0 29.5208 -1.35569 -5.2051 -72.1216 -3.64079 9.71435 31.0635 -0.556958 -4.02704 -15.8819 0.0 0.0 -0.0 0.0 -0.0 21.2608 13.038 -0.401221 -24.98 -0.203387 -3.79774 18.2237 7.65472 2.59545 21.3227 -0.0 -0.0 0.0 0.0 0.0 
2503.08 735.894 -489.91 176.861 -51.7694 174.019 -1.45277 0.103491 1.89063 -1.45078 -0.0170028 1.89339 -1.44976 -0.46134 1.83642 -1.45443 -0.165576 1.88621 1.10777 0.493974 -2.78794 1.14417 3.19229 -2.99321 -0.0 0.0 -0.0 0.972474 17.9259 3.58107 -9.11331 -26.2707 71.2632 0.44582 -12.4539 0.0486438 -15.2082 -0.776687 1.77704 0.639396 22.4902 12.7916 -0.0 0.0 -0.0 12.305 25.0805 -24.1805 -2.95758 19.2739 -52.9889 1.51716 36.9245 -0.506552 -14.29 0.716598 -1.67604 3.88047 -30.0888 -34.7882 0.0 0.0 0.0 32.247 -1.73665 -3.76605 -70.1574 -3.39063 9.54265 31.2127 0.123848 -4.03743 -14.6457 0.0 0.0 -0.0 0.0 -0.0 18.5863 13.9213 0.366277 -27.1343 -0.143116 -4.12285 14.1153 1.06197 1.99889 22.149 -0.0 -0.0 0.0 0.0 0.0 
